<svg fill="#000000" xmlns="http://www.w3.org/2000/svg"  viewBox="0 0 30 30" width="60px" height="60px"><path d="M15 27A1 1 0 1 0 15 29A1 1 0 1 0 15 27Z"/><path d="M12 26c0 1.105.895 2 2 2h1 1c1.105 0 2-.895 2-2v-1h-6V26zM27 11A1 1 0 1 0 27 13 1 1 0 1 0 27 11zM3 11A1 1 0 1 0 3 13 1 1 0 1 0 3 11z"/><path d="M23.485 19.485A1 1 0 1 0 23.485 21.485A1 1 0 1 0 23.485 19.485Z" transform="rotate(-45.001 23.485 20.486)"/><path d="M6.515 2.515A1 1 0 1 0 6.515 4.515000000000001A1 1 0 1 0 6.515 2.515Z" transform="rotate(-45.001 6.515 3.515)"/><path d="M6.515 19.485A1 1 0 1 0 6.515 21.485A1 1 0 1 0 6.515 19.485Z" transform="rotate(-45.001 6.514 20.485)"/><path d="M23.485 2.515A1 1 0 1 0 23.485 4.515000000000001A1 1 0 1 0 23.485 2.515Z" transform="rotate(-45.001 23.485 3.515)"/><path d="M15,3c-4.971,0-9,4.029-9,9c0,5,4,7,6,11h6c2-4,6-6,6-11C24,7.029,19.971,3,15,3z M15,18v-5h-4l4-7v5h4L15,18z"/></svg>