<svg xmlns="http://www.w3.org/2000/svg" width="104" height="40" viewBox="0 0 104 40">
    <g fill="none" fill-rule="evenodd">
        <path fill="#E00A1E" d="M0 39.997h103.96V35.75H0z"/>
        <path fill="#FFF" d="M81.325.028V4.19h6.495V33.32h5.082V4.19h6.495V.028zM75.822 22.36c1.874-.521 3.244-2.162 3.244-4.107V4.19c0-2.365-2.023-4.162-4.518-4.162H63.253v33.293h5.082V4.19h3.954c.987 0 1.694.78 1.694 1.69v11.835c0 .78-.707 1.56-1.694 1.56h-2.824l4.518 14.046h5.365L75.822 22.36zM59.3 33.321L52.521.028h-5.647l-6.778 33.293h5.083l4.518-24.97 3.012 16.647h-5.27l1.129 4.162h4.894l.753 4.161zM22.59.028V4.19h6.495V33.32h5.082V4.19h6.495V.028zM20.896 33.325h-5.083V28.84c0-.982-.285-1.945-.824-2.783L6.165 14.08a10.288 10.288 0 0 1-1.648-5.566V4.31c0-2.364 2.024-4.28 4.519-4.28h6.776c2.496 0 4.518 1.916 4.518 4.28v6.124h-5.082V5.795c0-.886-.759-1.605-1.695-1.605h-2.258c-.936 0-1.695.719-1.695 1.605v2.687c0 .981.285 1.944.824 2.782l8.824 11.976a10.287 10.287 0 0 1 1.648 5.566v4.52zm-16.379-.004H9.6V29.16H4.517v4.161z"/>
    </g>
</svg>
