<?xml version="1.0" encoding="utf-8"?>
<!-- Generator: Adobe Illustrator 23.0.2, SVG Export Plug-In . SVG Version: 6.00 Build 0)  -->
<svg version="1.1" id="Слой_1" xmlns="http://www.w3.org/2000/svg" xmlns:xlink="http://www.w3.org/1999/xlink" x="0px" y="0px"
	 viewBox="0 0 128 128" style="enable-background:new 0 0 128 128;" xml:space="preserve">
<style type="text/css">
	.st0{fill:#FFFFFF;}
	.st1{font-family:'MyriadPro-Regular';}
	.st2{font-size:60px;}
</style>
<g>
	<circle class="st0" cx="64" cy="68" r="57"/>
	<path d="M64,13c30.33,0,55,24.67,55,55s-24.67,55-55,55S9,98.33,9,68S33.67,13,64,13 M64,9C31.42,9,5,35.42,5,68s26.42,59,59,59
		s59-26.42,59-59S96.58,9,64,9L64,9z"/>
</g>
<text transform="matrix(1 0 0 1 44.4116 86.4116)" class="st1 st2">Д</text>
<g>
	<path class="st0" d="M44.5,33c-3.58,0-6.5-2.92-6.5-6.5v-15C38,7.92,40.92,5,44.5,5S51,7.92,51,11.5v15C51,30.08,48.08,33,44.5,33z
		"/>
	<path d="M44.5,7c2.48,0,4.5,2.02,4.5,4.5v15c0,2.48-2.02,4.5-4.5,4.5c-2.48,0-4.5-2.02-4.5-4.5v-15C40,9.02,42.02,7,44.5,7 M44.5,3
		L44.5,3C39.81,3,36,6.81,36,11.5v15c0,4.69,3.81,8.5,8.5,8.5h0c4.69,0,8.5-3.81,8.5-8.5v-15C53,6.81,49.19,3,44.5,3L44.5,3z"/>
</g>
<g>
	<path class="st0" d="M84.5,33c-3.58,0-6.5-2.92-6.5-6.5v-15C78,7.92,80.92,5,84.5,5S91,7.92,91,11.5v15C91,30.08,88.08,33,84.5,33z
		"/>
	<path d="M84.5,7c2.48,0,4.5,2.02,4.5,4.5v15c0,2.48-2.02,4.5-4.5,4.5c-2.48,0-4.5-2.02-4.5-4.5v-15C80,9.02,82.02,7,84.5,7 M84.5,3
		L84.5,3C79.81,3,76,6.81,76,11.5v15c0,4.69,3.81,8.5,8.5,8.5h0c4.69,0,8.5-3.81,8.5-8.5v-15C93,6.81,89.19,3,84.5,3L84.5,3z"/>
</g>
</svg>
