<svg height="512" viewBox="0 0 512 512" width="512" xmlns="http://www.w3.org/2000/svg"><g><path d="m256 312a80 80 0 1 0 -80-80 80.091 80.091 0 0 0 80 80zm0-144a64 64 0 1 1 -64 64 64.072 64.072 0 0 1 64-64z"/><path d="m496 64h-480a8 8 0 0 0 -8 8v128a8 8 0 0 0 8 8h112v232a8 8 0 0 0 8 8h240a8 8 0 0 0 8-8v-232h112a8 8 0 0 0 8-8v-128a8 8 0 0 0 -8-8zm-352 368v-39.32a48.094 48.094 0 0 1 39.32 39.32zm224 0h-39.32a48.094 48.094 0 0 1 39.32-39.32zm0-55.48a64.1 64.1 0 0 0 -55.48 55.48h-113.04a64.1 64.1 0 0 0 -55.48-55.48v-232.52h224zm-256-248.52a8 8 0 0 0 0 16h16v16h-32v-48h320v48h-32v-16h16a8 8 0 0 0 0-16zm376 64h-104v-16h40a8 8 0 0 0 8-8v-64a8 8 0 0 0 -8-8h-336a8 8 0 0 0 -8 8v64a8 8 0 0 0 8 8h40v16h-104v-112h464z"/></g></svg>