<svg xmlns="http://www.w3.org/2000/svg" viewBox="0 0 746.86333 163.75225">
  <defs>
    <style>
      .cls-1 {
        fill: #1b1f26;
      }
    </style>
  </defs>
  <title>Ресурс 2</title>
  <g id="Слой_2" data-name="Слой 2">
    <g id="Слой_1-2" data-name="Слой 1">
      <g id="Слой_1-2-2" data-name="Слой 1-2">
        <path class="cls-1" d="M480.33246,150.18336V54.5074l-36.72608,49.12534a13.57193,13.57193,0,0,1-21.98862,0L384.89165,54.5074v95.676a13.68546,13.68546,0,0,1-27.36986,0V13.57116A13.62858,13.62858,0,0,1,371.20938.00185l.11394.001A13.19154,13.19154,0,0,1,382.08447,5.3834L432.6114,72.75353,483.141,5.3834A13.18816,13.18816,0,0,1,493.90082.00282a13.62873,13.62873,0,0,1,13.80123,13.454l.001.11432v136.6122a13.68577,13.68577,0,0,1-27.37053,0Z"/>
        <path class="cls-1" d="M631.193,109.24715A54.62161,54.62161,0,1,1,576.4546,54.5074,54.75963,54.75963,0,0,1,631.193,109.24715Zm-27.36922,0a27.25255,27.25255,0,1,0-27.36922,27.13538A27.25254,27.25254,0,0,0,603.82376,109.24715Z"/>
        <path class="cls-1" d="M746.86333,109.24715c0,29.94258-22.92525,54.50458-50.99589,54.50458a47.67736,47.67736,0,0,1-25.49861-7.25115,13.88331,13.88331,0,0,1-12.16411,7.25115,13.57741,13.57741,0,0,1-13.567-13.56833V13.57116a13.6851,13.6851,0,0,1,27.36923,0V60.82325a48.42052,48.42052,0,0,1,23.86049-6.31585C723.93814,54.5074,746.86333,79.06941,746.86333,109.24715Zm-27.13539,0c0-15.20512-10.76115-27.37055-23.86057-27.37055-13.33317,0-23.86056,12.16543-23.86056,27.37054,0,14.97129,10.52733,27.13538,23.86056,27.13538,13.09948,0,23.86063-12.16408,23.86063-27.13537Z"/>
        <path class="cls-1" d="M135.44922,145.038a13.73119,13.73119,0,0,1-12.63238,18.71375,13.60306,13.60306,0,0,1-12.63173-8.65543L99.89228,129.599H36.4984L26.20558,155.09627a13.604,13.604,0,0,1-12.63242,8.65546A13.72168,13.72168,0,0,1,.00547,150.18336a12.57884,12.57884,0,0,1,.936-5.14541L55.446,8.65824a13.71749,13.71749,0,0,1,25.498,0Zm-46.5513-42.57431L68.31223,50.29728,47.49272,102.46364Z"/>
        <path class="cls-1" d="M205.58154,68.30959A13.62907,13.62907,0,0,1,191.8916,81.87754l-.1109-.00094H178.21237v68.30676a13.57743,13.57743,0,0,1-13.567,13.56834,13.77944,13.77944,0,0,1-13.80219-13.56834V81.8766h-6.78353a13.57741,13.57741,0,0,1-13.56834-13.567,13.77915,13.77915,0,0,1,13.56834-13.80084h6.7835V40.94041A45.97661,45.97661,0,0,1,155.75606,21.29C162.53958,7.48916,175.40513.00417,191.7807.00417a13.68443,13.68443,0,0,1,.23413,27.36785q-.11706.001-.23413,0c-7.25249,0-9.82454,2.80855-11.2288,5.6144a17.536,17.536,0,0,0-2.33955,7.954V54.50877h13.56833A13.82634,13.82634,0,0,1,205.58154,68.30959Z"/>
        <path class="cls-1" d="M295.248,68.30959a13.62906,13.62906,0,0,1-13.68989,13.568l-.111-.001H267.87884v68.30676a13.57743,13.57743,0,0,1-13.567,13.56834,13.77942,13.77942,0,0,1-13.80217-13.56834V81.8766h-6.78354a13.57741,13.57741,0,0,1-13.56836-13.567,13.77914,13.77914,0,0,1,13.56836-13.80084h6.7835V40.94041A45.97676,45.97676,0,0,1,245.42255,21.29C252.20607,7.48916,265.07162.00417,281.44717.00417A13.68443,13.68443,0,1,1,281.6813,27.372q-.117.001-.23413,0c-7.25249,0-9.82453,2.80855-11.2288,5.6144a17.53612,17.53612,0,0,0-2.33957,7.954V54.50877h13.56834A13.82633,13.82633,0,0,1,295.248,68.30959Z"/>
        <path class="cls-1" d="M324.53753,34.3907a13.68511,13.68511,0,1,1,13.80219-13.80218A13.8269,13.8269,0,0,1,324.53753,34.3907Zm-13.567,115.79268V68.30959a13.7789,13.7789,0,0,1,13.567-13.80084,13.98043,13.98043,0,0,1,13.80219,13.80084v81.87377a13.77943,13.77943,0,0,1-13.80219,13.56834,13.57742,13.57742,0,0,1-13.567-13.56834Z"/>
      </g>
    </g>
  </g>
</svg>
